<?xml version="1.0" encoding="UTF-8"?><svg width="24px" height="24px" stroke-width="1.5" viewBox="0 0 24 24" fill="none" xmlns="http://www.w3.org/2000/svg" color="#000000"><path d="M12 22c5.523 0 10-4.477 10-10S17.523 2 12 2 2 6.477 2 12s4.477 10 10 10z" stroke="#B3B3B3" stroke-width="1.5" stroke-linecap="round" stroke-linejoin="round"></path><path d="M2.5 12.5l5.5 2L7 18l1 3M17 20.5l-.5-2.5-2.5-1v-3.5l3-1 4.5.5M19 5.5L18.5 7l-3.5.5v3l2.5-1h2l2 1M2.5 10.5l2.5-2L7.5 8l2-3-1-2" stroke="#B3B3B3" stroke-width="1.5" stroke-linecap="round" stroke-linejoin="round"></path></svg>