<?xml version="1.0" standalone="no"?>
<!DOCTYPE svg PUBLIC "-//W3C//DTD SVG 20010904//EN"
 "http://www.w3.org/TR/2001/REC-SVG-20010904/DTD/svg10.dtd">
<svg version="1.0" xmlns="http://www.w3.org/2000/svg"
 width="877.000000pt" height="877.000000pt" viewBox="0 0 877.000000 877.000000"
 preserveAspectRatio="xMidYMid meet">

<g transform="translate(0.000000,877.000000) scale(0.100000,-0.100000)"
fill="#000000" stroke="none">
<path d="M4748 7496 c-270 -48 -558 -159 -710 -274 -48 -36 -69 -47 -84 -41
-59 23 -127 -5 -129 -54 -1 -14 -13 -39 -28 -57 -31 -37 -33 -47 -11 -78 14
-20 13 -26 -20 -84 -134 -241 -163 -593 -61 -762 l33 -55 -25 -78 c-32 -99
-36 -207 -10 -275 21 -53 78 -110 130 -129 l35 -12 -19 -31 c-10 -17 -19 -37
-19 -43 0 -23 40 -54 60 -48 11 3 31 -1 45 -11 17 -11 37 -15 59 -11 31 5 35
2 57 -36 12 -23 57 -76 98 -117 42 -41 91 -95 110 -119 l35 -44 -34 -65 c-61
-118 -178 -222 -317 -282 -29 -12 -57 -19 -63 -15 -18 11 -5 -26 41 -120 84
-174 247 -333 434 -425 135 -67 225 -90 365 -97 243 -11 430 57 590 217 104
105 155 196 196 359 l9 33 145 -118 c416 -339 586 -574 679 -936 16 -62 48
-221 71 -353 24 -132 58 -301 76 -375 18 -74 30 -137 26 -141 -4 -3 -79 -30
-167 -59 -88 -28 -170 -56 -182 -60 -20 -8 -22 -6 -27 63 -4 40 -11 198 -16
352 -6 154 -13 309 -17 345 -6 60 -7 62 -14 30 -35 -163 -37 -831 -5 -1195 45
-492 131 -1041 171 -1085 41 -45 81 -9 72 64 -3 23 -19 115 -36 206 -60 328
-121 779 -137 1011 l-7 106 30 -4 c20 -3 70 10 142 36 61 23 115 41 121 41 5
0 10 -24 10 -53 0 -85 49 -620 71 -772 43 -301 100 -610 118 -635 27 -37 66
-38 85 -2 14 27 11 47 -30 278 -25 137 -69 377 -99 534 -30 157 -68 364 -85
460 -17 96 -33 181 -35 188 -5 13 8 20 108 56 62 23 66 42 29 152 -35 105 -58
208 -106 479 -41 230 -84 413 -119 506 -132 349 -386 630 -774 857 -113 65
-163 78 -182 45 -8 -15 -13 -14 -50 11 -36 25 -121 135 -121 156 0 4 24 15 53
25 170 55 332 193 405 345 96 201 107 364 66 990 -8 124 -17 233 -20 243 -3
10 0 17 9 17 7 0 24 11 37 25 46 49 38 204 -15 275 l-23 31 24 43 c29 51 46
134 37 177 -4 20 -16 38 -34 48 -22 12 -29 23 -29 47 0 33 -15 54 -41 54 -12
0 -15 6 -11 25 7 39 -12 51 -96 65 -94 15 -216 50 -325 92 -45 18 -86 33 -92
34 -5 2 -30 11 -55 20 -60 23 -294 28 -402 10z m896 -728 l44 -43 13 -240 c8
-132 14 -400 14 -595 l0 -355 -31 -85 c-38 -107 -87 -182 -169 -259 -155 -144
-381 -195 -595 -133 -36 10 -84 22 -107 26 -36 5 -44 3 -53 -15 -10 -18 -6
-25 29 -59 60 -54 187 -90 326 -90 l60 0 25 -58 c32 -75 143 -192 183 -192
l27 0 -19 -50 c-43 -114 -141 -235 -245 -304 -328 -218 -791 -110 -1103 257
-86 101 -143 172 -143 180 0 2 32 7 70 9 103 8 203 59 295 152 88 88 164 226
125 226 -5 0 -19 19 -31 43 -12 24 -79 98 -154 172 -101 99 -139 144 -160 188
-15 31 -35 62 -44 67 -10 5 -16 22 -16 47 l0 38 -60 0 c-128 0 -175 88 -140
260 20 98 42 145 76 164 41 22 104 -6 178 -80 51 -51 63 -59 79 -50 20 11 32
79 32 186 0 114 70 430 103 462 6 7 68 24 136 38 68 15 162 39 208 54 46 16
83 27 83 24 0 -2 -9 -21 -20 -43 -24 -47 -24 -45 -4 -64 36 -36 240 -2 437 73
101 39 114 41 215 42 79 0 129 6 192 23 47 13 88 24 92 25 4 0 27 -18 52 -41z"/>
<path d="M5370 6485 c-7 -8 -10 -25 -6 -39 5 -21 16 -27 83 -42 43 -9 109 -30
147 -46 83 -34 101 -26 60 26 -32 41 -104 80 -185 101 -68 19 -84 19 -99 0z"/>
<path d="M4829 6466 c-25 -6 -65 -24 -90 -38 -51 -30 -149 -130 -132 -135 6
-2 33 10 60 26 68 42 123 60 207 67 82 8 106 17 106 43 0 47 -60 62 -151 37z"/>
<path d="M4795 6240 c-22 -24 -33 -137 -16 -169 19 -35 62 -25 83 19 21 40 24
140 6 158 -18 18 -53 14 -73 -8z"/>
<path d="M5479 6234 c-46 -49 -21 -164 36 -164 31 0 53 33 61 91 5 36 2 49
-16 72 -27 34 -50 34 -81 1z"/>
<path d="M3840 5971 c0 -11 5 -23 10 -26 8 -5 7 -11 -1 -21 -31 -37 29 -95 67
-63 13 11 19 9 37 -13 31 -37 61 -44 86 -19 29 29 26 47 -11 82 -72 65 -188
102 -188 60z"/>
<path d="M5290 5979 c0 -7 16 -27 35 -46 57 -56 60 -120 5 -143 -35 -15 -76
-3 -127 36 -37 28 -68 26 -78 -7 -9 -27 6 -43 68 -74 93 -46 185 -26 221 49
31 65 11 141 -46 176 -36 22 -78 27 -78 9z"/>
<path d="M5364 5529 c-39 -41 -75 -59 -119 -59 -43 0 -69 12 -112 53 -29 27
-37 30 -60 21 -95 -33 43 -164 172 -164 65 0 155 65 176 127 19 59 -10 71 -57
22z"/>
<path d="M3713 4829 c-260 -30 -614 -245 -864 -524 -252 -281 -468 -654 -596
-1030 -53 -157 -93 -305 -93 -348 0 -49 30 -79 129 -126 39 -19 71 -38 71 -43
0 -4 -11 -51 -25 -105 -64 -249 -145 -986 -145 -1321 0 -85 2 -95 25 -117 30
-31 37 -31 70 -2 l25 22 10 250 c12 292 31 560 65 915 14 140 25 272 25 293 0
20 4 37 9 37 5 0 65 -24 133 -54 202 -88 386 -140 541 -153 l68 -6 -5 -46 c-6
-44 -72 -844 -97 -1168 -6 -84 -8 -164 -5 -178 12 -46 74 -57 96 -16 14 28 36
348 80 1166 21 383 24 587 11 665 l-7 45 -13 -43 c-16 -58 -38 -182 -47 -270
-8 -83 4 -78 -139 -57 -192 29 -370 92 -644 229 -148 75 -151 77 -145 104 111
459 303 862 572 1199 97 121 291 308 400 386 173 124 304 186 530 252 124 36
139 43 111 49 -36 7 -47 7 -146 -5z"/>
</g>
</svg>
