<svg xmlns="http://www.w3.org/2000/svg" width="1200" height="630" fill="none" viewBox="0 0 1200 630"><rect width="1200" height="630" fill="#fff"/><path fill="#000" d="M357.178 308V289.704H350.718V286.862H366.934V289.704H360.474V308H357.178ZM372.09 308.308C370.615 308.308 369.326 307.985 368.223 307.341C367.129 306.687 366.279 305.764 365.674 304.572C365.068 303.371 364.766 301.945 364.766 300.295V300.266C364.766 298.625 365.068 297.209 365.674 296.018C366.289 294.826 367.144 293.908 368.237 293.264C369.341 292.619 370.62 292.297 372.075 292.297C373.54 292.297 374.819 292.619 375.913 293.264C377.017 293.898 377.871 294.812 378.477 296.003C379.092 297.194 379.399 298.615 379.399 300.266V300.295C379.399 301.955 379.092 303.381 378.477 304.572C377.871 305.764 377.021 306.687 375.928 307.341C374.834 307.985 373.555 308.308 372.09 308.308ZM372.104 305.642C372.925 305.642 373.638 305.432 374.243 305.012C374.849 304.592 375.317 303.986 375.649 303.195C375.981 302.395 376.147 301.428 376.147 300.295V300.266C376.147 299.143 375.981 298.186 375.649 297.395C375.317 296.594 374.844 295.988 374.229 295.578C373.613 295.158 372.896 294.948 372.075 294.948C371.265 294.948 370.552 295.158 369.937 295.578C369.331 295.998 368.857 296.604 368.516 297.395C368.174 298.186 368.003 299.143 368.003 300.266V300.295C368.003 301.428 368.169 302.395 368.501 303.195C368.843 303.986 369.321 304.592 369.937 305.012C370.552 305.432 371.274 305.642 372.104 305.642ZM390.063 308.308C389.331 308.308 388.652 308.19 388.027 307.956C387.412 307.712 386.865 307.375 386.387 306.945C385.918 306.516 385.532 305.998 385.229 305.393H385.156V308H381.978V286.862H385.156V295.212H385.229C385.532 294.606 385.923 294.089 386.401 293.659C386.88 293.22 387.432 292.883 388.057 292.648C388.691 292.414 389.37 292.297 390.093 292.297C391.382 292.297 392.505 292.624 393.462 293.278C394.419 293.923 395.166 294.841 395.703 296.032C396.24 297.224 396.509 298.64 396.509 300.28V300.295C396.509 301.936 396.24 303.356 395.703 304.558C395.176 305.749 394.429 306.672 393.462 307.326C392.495 307.98 391.362 308.308 390.063 308.308ZM389.214 305.568C390.044 305.568 390.762 305.358 391.367 304.938C391.973 304.519 392.437 303.913 392.759 303.122C393.091 302.321 393.257 301.379 393.257 300.295V300.28C393.257 299.196 393.091 298.264 392.759 297.482C392.437 296.691 391.973 296.086 391.367 295.666C390.762 295.236 390.044 295.021 389.214 295.021C388.423 295.021 387.72 295.241 387.104 295.681C386.499 296.11 386.021 296.721 385.669 297.512C385.317 298.293 385.142 299.216 385.142 300.28V300.295C385.142 301.359 385.312 302.287 385.654 303.078C386.006 303.869 386.489 304.484 387.104 304.924C387.72 305.354 388.423 305.568 389.214 305.568ZM400.171 313.142C399.868 313.142 399.565 313.127 399.263 313.098C398.96 313.068 398.711 313.034 398.516 312.995V310.52C398.633 310.539 398.779 310.559 398.955 310.578C399.141 310.607 399.341 310.622 399.556 310.622C400.308 310.622 400.903 310.495 401.343 310.241C401.792 309.987 402.144 309.489 402.397 308.747L402.661 308.015L397.051 292.59H400.493L404.58 305.817L404.023 305.129H404.8L404.243 305.817L408.345 292.59H411.699L405.957 308.703C405.576 309.768 405.127 310.627 404.609 311.281C404.102 311.936 403.486 312.409 402.764 312.702C402.051 312.995 401.187 313.142 400.171 313.142ZM421.616 308V305.319H427.798C429.263 305.319 430.381 305.026 431.152 304.44C431.924 303.854 432.31 303 432.31 301.877V301.848C432.31 301.086 432.129 300.451 431.768 299.943C431.416 299.436 430.889 299.055 430.186 298.801C429.482 298.537 428.608 298.405 427.563 298.405H421.616V295.871H426.904C428.35 295.871 429.453 295.588 430.215 295.021C430.977 294.455 431.357 293.645 431.357 292.59V292.561C431.357 291.584 431.03 290.837 430.376 290.319C429.731 289.802 428.813 289.543 427.622 289.543H421.616V286.862H428.413C429.673 286.862 430.767 287.082 431.694 287.521C432.632 287.951 433.354 288.566 433.862 289.367C434.38 290.158 434.639 291.086 434.639 292.15V292.18C434.639 292.922 434.468 293.625 434.126 294.289C433.784 294.953 433.315 295.51 432.72 295.959C432.134 296.408 431.465 296.687 430.713 296.794V296.853C431.719 296.95 432.593 297.233 433.335 297.702C434.087 298.161 434.663 298.762 435.063 299.504C435.474 300.236 435.679 301.071 435.679 302.009V302.038C435.679 303.278 435.386 304.343 434.8 305.231C434.224 306.12 433.398 306.804 432.324 307.282C431.25 307.761 429.961 308 428.457 308H421.616ZM419.976 308V286.862H423.257V308H419.976ZM438.096 308V292.59H441.289V295.227H441.348C441.592 294.318 442.026 293.605 442.651 293.088C443.276 292.561 444.028 292.297 444.907 292.297C445.142 292.297 445.352 292.312 445.537 292.341C445.732 292.36 445.889 292.385 446.006 292.414V295.358C445.879 295.31 445.688 295.271 445.435 295.241C445.181 295.202 444.897 295.183 444.585 295.183C443.911 295.183 443.325 295.329 442.827 295.622C442.329 295.905 441.948 296.32 441.685 296.867C441.421 297.404 441.289 298.054 441.289 298.815V308H438.096ZM453.975 308.308C452.5 308.308 451.211 307.985 450.107 307.341C449.014 306.687 448.164 305.764 447.559 304.572C446.953 303.371 446.65 301.945 446.65 300.295V300.266C446.65 298.625 446.953 297.209 447.559 296.018C448.174 294.826 449.028 293.908 450.122 293.264C451.226 292.619 452.505 292.297 453.96 292.297C455.425 292.297 456.704 292.619 457.798 293.264C458.901 293.898 459.756 294.812 460.361 296.003C460.977 297.194 461.284 298.615 461.284 300.266V300.295C461.284 301.955 460.977 303.381 460.361 304.572C459.756 305.764 458.906 306.687 457.812 307.341C456.719 307.985 455.439 308.308 453.975 308.308ZM453.989 305.642C454.81 305.642 455.522 305.432 456.128 305.012C456.733 304.592 457.202 303.986 457.534 303.195C457.866 302.395 458.032 301.428 458.032 300.295V300.266C458.032 299.143 457.866 298.186 457.534 297.395C457.202 296.594 456.729 295.988 456.113 295.578C455.498 295.158 454.78 294.948 453.96 294.948C453.149 294.948 452.437 295.158 451.821 295.578C451.216 295.998 450.742 296.604 450.4 297.395C450.059 298.186 449.888 299.143 449.888 300.266V300.295C449.888 301.428 450.054 302.395 450.386 303.195C450.728 303.986 451.206 304.592 451.821 305.012C452.437 305.432 453.159 305.642 453.989 305.642ZM466.704 308L462.485 292.59H465.664L468.462 304.719H468.535L471.729 292.59H474.79L478.013 304.719H478.086L480.884 292.59H484.033L479.814 308H476.504L473.281 296.457H473.208L470 308H466.704ZM485.967 308V292.59H489.16V294.919H489.219C489.629 294.138 490.229 293.508 491.021 293.029C491.812 292.541 492.788 292.297 493.95 292.297C495.64 292.297 496.948 292.81 497.876 293.835C498.804 294.851 499.268 296.247 499.268 298.024V308H496.089V298.64C496.089 297.478 495.815 296.584 495.269 295.959C494.731 295.334 493.916 295.021 492.822 295.021C492.08 295.021 491.431 295.188 490.874 295.52C490.327 295.852 489.902 296.315 489.6 296.911C489.307 297.507 489.16 298.21 489.16 299.021V308H485.967ZM508.613 300.866V297.98H518.032V300.866H508.613Z"/><path fill="#B3B3B3" d="M532.886 308V290.129H532.812L527.29 293.938V290.817L532.856 286.862H536.108V308H532.886ZM551.299 308V303.796H540.723V300.925C541.318 299.987 541.914 299.05 542.51 298.112C543.115 297.175 543.716 296.237 544.312 295.3C544.917 294.362 545.518 293.425 546.113 292.487C546.709 291.55 547.305 290.612 547.9 289.675C548.506 288.737 549.106 287.8 549.702 286.862H554.448V301.027H557.378V303.796H554.448V308H551.299ZM543.784 301.086H551.328V289.47H551.24C550.742 290.241 550.244 291.013 549.746 291.784C549.248 292.546 548.75 293.312 548.252 294.084C547.764 294.846 547.266 295.612 546.758 296.384C546.26 297.155 545.762 297.927 545.264 298.698C544.775 299.46 544.282 300.227 543.784 300.998V301.086ZM567.661 313.142C567.358 313.142 567.056 313.127 566.753 313.098C566.45 313.068 566.201 313.034 566.006 312.995V310.52C566.123 310.539 566.27 310.559 566.445 310.578C566.631 310.607 566.831 310.622 567.046 310.622C567.798 310.622 568.394 310.495 568.833 310.241C569.282 309.987 569.634 309.489 569.888 308.747L570.151 308.015L564.541 292.59H567.983L572.07 305.817L571.514 305.129H572.29L571.733 305.817L575.835 292.59H579.189L573.447 308.703C573.066 309.768 572.617 310.627 572.1 311.281C571.592 311.936 570.977 312.409 570.254 312.702C569.541 312.995 568.677 313.142 567.661 313.142ZM587.012 308.308C585.508 308.308 584.209 307.985 583.115 307.341C582.031 306.687 581.196 305.764 580.61 304.572C580.034 303.371 579.746 301.96 579.746 300.339V300.324C579.746 298.723 580.039 297.321 580.625 296.12C581.211 294.909 582.036 293.972 583.101 293.308C584.165 292.634 585.415 292.297 586.851 292.297C588.296 292.297 589.536 292.619 590.571 293.264C591.616 293.898 592.422 294.802 592.988 295.974C593.555 297.136 593.838 298.488 593.838 300.031V301.101H581.313V298.859H592.3L590.732 300.954V299.724C590.732 298.64 590.566 297.741 590.234 297.028C589.912 296.306 589.458 295.769 588.872 295.417C588.296 295.065 587.627 294.89 586.865 294.89C586.113 294.89 585.439 295.075 584.844 295.446C584.248 295.817 583.779 296.364 583.438 297.087C583.096 297.8 582.925 298.679 582.925 299.724V300.954C582.925 301.95 583.091 302.805 583.423 303.518C583.765 304.221 584.248 304.763 584.873 305.144C585.498 305.515 586.235 305.7 587.085 305.7C587.71 305.7 588.262 305.607 588.74 305.422C589.219 305.227 589.614 304.973 589.927 304.66C590.249 304.338 590.474 303.981 590.601 303.591L590.645 303.474H593.662L593.633 303.635C593.506 304.24 593.267 304.821 592.915 305.378C592.563 305.935 592.104 306.438 591.538 306.887C590.981 307.326 590.322 307.673 589.561 307.927C588.799 308.181 587.949 308.308 587.012 308.308ZM600.811 308.278C599.785 308.278 598.887 308.083 598.115 307.692C597.344 307.302 596.743 306.755 596.313 306.052C595.884 305.349 595.669 304.538 595.669 303.62V303.591C595.669 302.692 595.894 301.921 596.343 301.276C596.792 300.622 597.441 300.104 598.291 299.724C599.15 299.343 600.186 299.118 601.396 299.05L607.227 298.698V300.925L601.821 301.262C600.874 301.32 600.142 301.55 599.624 301.95C599.116 302.341 598.862 302.863 598.862 303.518V303.547C598.862 304.221 599.116 304.753 599.624 305.144C600.142 305.534 600.825 305.729 601.675 305.729C602.417 305.729 603.081 305.578 603.667 305.275C604.263 304.973 604.731 304.558 605.073 304.03C605.415 303.493 605.586 302.893 605.586 302.229V297.644C605.586 296.794 605.322 296.13 604.795 295.651C604.268 295.163 603.511 294.919 602.524 294.919C601.616 294.919 600.884 295.114 600.327 295.505C599.78 295.896 599.438 296.398 599.302 297.014L599.272 297.146H596.284L596.299 296.984C596.377 296.096 596.675 295.3 597.192 294.597C597.71 293.884 598.428 293.322 599.346 292.912C600.264 292.502 601.353 292.297 602.612 292.297C603.872 292.297 604.961 292.507 605.879 292.927C606.797 293.347 607.51 293.938 608.018 294.699C608.525 295.461 608.779 296.354 608.779 297.38V308H605.586V305.568H605.527C605.225 306.125 604.834 306.608 604.355 307.019C603.877 307.419 603.335 307.731 602.729 307.956C602.134 308.171 601.494 308.278 600.811 308.278ZM611.826 308V292.59H615.02V295.227H615.078C615.322 294.318 615.757 293.605 616.382 293.088C617.007 292.561 617.759 292.297 618.638 292.297C618.872 292.297 619.082 292.312 619.268 292.341C619.463 292.36 619.619 292.385 619.736 292.414V295.358C619.609 295.31 619.419 295.271 619.165 295.241C618.911 295.202 618.628 295.183 618.315 295.183C617.642 295.183 617.056 295.329 616.558 295.622C616.06 295.905 615.679 296.32 615.415 296.867C615.151 297.404 615.02 298.054 615.02 298.815V308H611.826ZM634.414 308.308C632.939 308.308 631.65 307.985 630.547 307.341C629.453 306.687 628.604 305.764 627.998 304.572C627.393 303.371 627.09 301.945 627.09 300.295V300.266C627.09 298.625 627.393 297.209 627.998 296.018C628.613 294.826 629.468 293.908 630.562 293.264C631.665 292.619 632.944 292.297 634.399 292.297C635.864 292.297 637.144 292.619 638.237 293.264C639.341 293.898 640.195 294.812 640.801 296.003C641.416 297.194 641.724 298.615 641.724 300.266V300.295C641.724 301.955 641.416 303.381 640.801 304.572C640.195 305.764 639.346 306.687 638.252 307.341C637.158 307.985 635.879 308.308 634.414 308.308ZM634.429 305.642C635.249 305.642 635.962 305.432 636.567 305.012C637.173 304.592 637.642 303.986 637.974 303.195C638.306 302.395 638.472 301.428 638.472 300.295V300.266C638.472 299.143 638.306 298.186 637.974 297.395C637.642 296.594 637.168 295.988 636.553 295.578C635.938 295.158 635.22 294.948 634.399 294.948C633.589 294.948 632.876 295.158 632.261 295.578C631.655 295.998 631.182 296.604 630.84 297.395C630.498 298.186 630.327 299.143 630.327 300.266V300.295C630.327 301.428 630.493 302.395 630.825 303.195C631.167 303.986 631.646 304.592 632.261 305.012C632.876 305.432 633.599 305.642 634.429 305.642ZM644.302 308V286.862H647.48V308H644.302ZM656.504 308.308C655.195 308.308 654.058 307.98 653.091 307.326C652.124 306.672 651.377 305.749 650.85 304.558C650.322 303.356 650.059 301.936 650.059 300.295V300.28C650.059 298.64 650.322 297.224 650.85 296.032C651.387 294.841 652.134 293.923 653.091 293.278C654.058 292.624 655.186 292.297 656.475 292.297C657.197 292.297 657.871 292.414 658.496 292.648C659.121 292.883 659.673 293.22 660.151 293.659C660.64 294.089 661.035 294.606 661.338 295.212H661.396V286.862H664.59V308H661.396V305.393H661.338C661.035 305.998 660.645 306.516 660.166 306.945C659.697 307.375 659.155 307.712 658.54 307.956C657.925 308.19 657.246 308.308 656.504 308.308ZM657.339 305.568C658.14 305.568 658.843 305.354 659.448 304.924C660.063 304.484 660.542 303.869 660.884 303.078C661.235 302.287 661.411 301.359 661.411 300.295V300.28C661.411 299.216 661.235 298.293 660.884 297.512C660.532 296.721 660.054 296.11 659.448 295.681C658.843 295.241 658.14 295.021 657.339 295.021C656.509 295.021 655.791 295.236 655.186 295.666C654.58 296.086 654.111 296.691 653.779 297.482C653.457 298.264 653.296 299.196 653.296 300.28V300.295C653.296 301.379 653.457 302.321 653.779 303.122C654.111 303.913 654.58 304.519 655.186 304.938C655.791 305.358 656.509 305.568 657.339 305.568ZM674.814 308V295.109H672.69V292.59H674.814V290.949C674.814 289.953 674.976 289.133 675.298 288.488C675.62 287.834 676.113 287.351 676.777 287.038C677.451 286.716 678.311 286.555 679.355 286.555C679.678 286.555 680 286.569 680.322 286.599C680.654 286.618 680.923 286.647 681.128 286.687V289.03C680.981 289.011 680.811 288.996 680.615 288.986C680.42 288.977 680.225 288.972 680.029 288.972C679.326 288.972 678.804 289.143 678.462 289.484C678.12 289.816 677.949 290.324 677.949 291.008V292.59H681.069V295.109H678.008V308H674.814ZM688.833 308.308C687.71 308.308 686.748 308.078 685.947 307.619C685.156 307.15 684.551 306.486 684.131 305.627C683.711 304.768 683.501 303.747 683.501 302.565V292.59H686.694V301.965C686.694 303.127 686.963 304.021 687.5 304.646C688.047 305.261 688.867 305.568 689.961 305.568C690.527 305.568 691.03 305.476 691.47 305.29C691.919 305.095 692.305 304.826 692.627 304.484C692.949 304.133 693.193 303.713 693.359 303.225C693.535 302.727 693.623 302.18 693.623 301.584V292.59H696.802V308H693.623V305.686H693.55C693.286 306.193 692.935 306.647 692.495 307.048C692.056 307.438 691.528 307.746 690.913 307.971C690.308 308.195 689.614 308.308 688.833 308.308ZM700.054 308V286.862H703.232V308H700.054ZM706.616 308V286.862H709.795V308H706.616ZM724.912 308.308C723.623 308.308 722.515 308.112 721.587 307.722C720.669 307.321 719.946 306.77 719.419 306.066C718.892 305.354 718.574 304.528 718.467 303.591L718.452 303.459H721.587L721.616 303.605C721.772 304.309 722.119 304.86 722.656 305.261C723.193 305.651 723.945 305.847 724.912 305.847C725.557 305.847 726.104 305.769 726.553 305.612C727.002 305.446 727.349 305.212 727.593 304.909C727.837 304.606 727.959 304.245 727.959 303.825V303.811C727.959 303.312 727.798 302.912 727.476 302.609C727.153 302.307 726.577 302.053 725.747 301.848L723.228 301.276C722.251 301.052 721.436 300.744 720.781 300.354C720.137 299.963 719.653 299.484 719.331 298.918C719.009 298.352 718.848 297.697 718.848 296.955V296.94C718.848 296.013 719.097 295.202 719.595 294.509C720.093 293.806 720.791 293.264 721.689 292.883C722.588 292.492 723.628 292.297 724.81 292.297C726.021 292.297 727.065 292.502 727.944 292.912C728.823 293.322 729.507 293.884 729.995 294.597C730.493 295.3 730.767 296.086 730.815 296.955V297.131H727.842L727.827 297.028C727.739 296.354 727.437 295.808 726.919 295.388C726.401 294.958 725.698 294.743 724.81 294.743C724.243 294.743 723.75 294.826 723.33 294.992C722.91 295.158 722.588 295.397 722.363 295.71C722.139 296.013 722.026 296.369 722.026 296.779V296.794C722.026 297.106 722.1 297.39 722.246 297.644C722.402 297.897 722.651 298.117 722.993 298.303C723.335 298.488 723.774 298.645 724.312 298.771L726.831 299.357C728.403 299.719 729.517 300.231 730.171 300.896C730.835 301.55 731.167 302.434 731.167 303.547V303.562C731.167 304.499 730.898 305.324 730.361 306.037C729.824 306.75 729.082 307.307 728.135 307.707C727.197 308.107 726.123 308.308 724.912 308.308ZM739.048 308.308C737.524 308.308 736.387 307.966 735.635 307.282C734.893 306.589 734.521 305.471 734.521 303.928V295.109H732.31V292.59H734.521V288.576H737.773V292.59H740.659V295.109H737.773V303.752C737.773 304.533 737.944 305.07 738.286 305.363C738.628 305.646 739.136 305.788 739.81 305.788C739.976 305.788 740.127 305.783 740.264 305.773C740.41 305.754 740.542 305.739 740.659 305.729V308.176C740.474 308.205 740.239 308.234 739.956 308.264C739.673 308.293 739.37 308.308 739.048 308.308ZM747.559 308.278C746.533 308.278 745.635 308.083 744.863 307.692C744.092 307.302 743.491 306.755 743.062 306.052C742.632 305.349 742.417 304.538 742.417 303.62V303.591C742.417 302.692 742.642 301.921 743.091 301.276C743.54 300.622 744.189 300.104 745.039 299.724C745.898 299.343 746.934 299.118 748.145 299.05L753.975 298.698V300.925L748.569 301.262C747.622 301.32 746.89 301.55 746.372 301.95C745.864 302.341 745.61 302.863 745.61 303.518V303.547C745.61 304.221 745.864 304.753 746.372 305.144C746.89 305.534 747.573 305.729 748.423 305.729C749.165 305.729 749.829 305.578 750.415 305.275C751.011 304.973 751.479 304.558 751.821 304.03C752.163 303.493 752.334 302.893 752.334 302.229V297.644C752.334 296.794 752.07 296.13 751.543 295.651C751.016 295.163 750.259 294.919 749.272 294.919C748.364 294.919 747.632 295.114 747.075 295.505C746.528 295.896 746.187 296.398 746.05 297.014L746.021 297.146H743.032L743.047 296.984C743.125 296.096 743.423 295.3 743.94 294.597C744.458 293.884 745.176 293.322 746.094 292.912C747.012 292.502 748.101 292.297 749.36 292.297C750.62 292.297 751.709 292.507 752.627 292.927C753.545 293.347 754.258 293.938 754.766 294.699C755.273 295.461 755.527 296.354 755.527 297.38V308H752.334V305.568H752.275C751.973 306.125 751.582 306.608 751.104 307.019C750.625 307.419 750.083 307.731 749.478 307.956C748.882 308.171 748.242 308.278 747.559 308.278ZM765.21 308.308C763.716 308.308 762.417 307.98 761.313 307.326C760.22 306.672 759.375 305.744 758.779 304.543C758.193 303.342 757.9 301.921 757.9 300.28V300.266C757.9 298.635 758.198 297.224 758.794 296.032C759.399 294.841 760.249 293.923 761.343 293.278C762.437 292.624 763.716 292.297 765.181 292.297C766.499 292.297 767.637 292.551 768.594 293.059C769.561 293.557 770.317 294.221 770.864 295.051C771.411 295.881 771.729 296.779 771.816 297.746L771.831 297.863H768.799L768.77 297.731C768.604 296.979 768.223 296.33 767.627 295.783C767.041 295.227 766.23 294.948 765.195 294.948C764.385 294.948 763.672 295.168 763.057 295.607C762.451 296.037 761.978 296.652 761.636 297.453C761.304 298.254 761.138 299.201 761.138 300.295V300.31C761.138 301.433 761.309 302.395 761.65 303.195C761.992 303.986 762.466 304.592 763.071 305.012C763.687 305.432 764.404 305.642 765.225 305.642C766.201 305.642 766.987 305.388 767.583 304.88C768.188 304.362 768.589 303.688 768.784 302.858L768.799 302.741H771.846V302.844C771.729 303.869 771.377 304.797 770.791 305.627C770.215 306.447 769.448 307.102 768.491 307.59C767.544 308.068 766.45 308.308 765.21 308.308ZM774.292 308V286.862H777.471V308H774.292ZM784.004 308L778.555 300.852L780.62 298.581L787.681 308H784.004ZM776.914 303.005V299.152H777.544L783.711 292.59H787.446L780.225 300.178H779.741L776.914 303.005ZM798.345 308L794.126 292.59H797.305L800.103 304.719H800.176L803.369 292.59H806.431L809.653 304.719H809.727L812.524 292.59H815.674L811.455 308H808.145L804.922 296.457H804.849L801.641 308H798.345ZM824.111 308.308C822.607 308.308 821.309 307.985 820.215 307.341C819.131 306.687 818.296 305.764 817.71 304.572C817.134 303.371 816.846 301.96 816.846 300.339V300.324C816.846 298.723 817.139 297.321 817.725 296.12C818.311 294.909 819.136 293.972 820.2 293.308C821.265 292.634 822.515 292.297 823.95 292.297C825.396 292.297 826.636 292.619 827.671 293.264C828.716 293.898 829.521 294.802 830.088 295.974C830.654 297.136 830.938 298.488 830.938 300.031V301.101H818.413V298.859H829.399L827.832 300.954V299.724C827.832 298.64 827.666 297.741 827.334 297.028C827.012 296.306 826.558 295.769 825.972 295.417C825.396 295.065 824.727 294.89 823.965 294.89C823.213 294.89 822.539 295.075 821.943 295.446C821.348 295.817 820.879 296.364 820.537 297.087C820.195 297.8 820.024 298.679 820.024 299.724V300.954C820.024 301.95 820.19 302.805 820.522 303.518C820.864 304.221 821.348 304.763 821.973 305.144C822.598 305.515 823.335 305.7 824.185 305.7C824.81 305.7 825.361 305.607 825.84 305.422C826.318 305.227 826.714 304.973 827.026 304.66C827.349 304.338 827.573 303.981 827.7 303.591L827.744 303.474H830.762L830.732 303.635C830.605 304.24 830.366 304.821 830.015 305.378C829.663 305.935 829.204 306.438 828.638 306.887C828.081 307.326 827.422 307.673 826.66 307.927C825.898 308.181 825.049 308.308 824.111 308.308ZM841.587 308.308C840.854 308.308 840.176 308.19 839.551 307.956C838.936 307.712 838.389 307.375 837.91 306.945C837.441 306.516 837.056 305.998 836.753 305.393H836.68V308H833.501V286.862H836.68V295.212H836.753C837.056 294.606 837.446 294.089 837.925 293.659C838.403 293.22 838.955 292.883 839.58 292.648C840.215 292.414 840.894 292.297 841.616 292.297C842.905 292.297 844.028 292.624 844.985 293.278C845.942 293.923 846.689 294.841 847.227 296.032C847.764 297.224 848.032 298.64 848.032 300.28V300.295C848.032 301.936 847.764 303.356 847.227 304.558C846.699 305.749 845.952 306.672 844.985 307.326C844.019 307.98 842.886 308.308 841.587 308.308ZM840.737 305.568C841.567 305.568 842.285 305.358 842.891 304.938C843.496 304.519 843.96 303.913 844.282 303.122C844.614 302.321 844.78 301.379 844.78 300.295V300.28C844.78 299.196 844.614 298.264 844.282 297.482C843.96 296.691 843.496 296.086 842.891 295.666C842.285 295.236 841.567 295.021 840.737 295.021C839.946 295.021 839.243 295.241 838.628 295.681C838.022 296.11 837.544 296.721 837.192 297.512C836.841 298.293 836.665 299.216 836.665 300.28V300.295C836.665 301.359 836.836 302.287 837.178 303.078C837.529 303.869 838.013 304.484 838.628 304.924C839.243 305.354 839.946 305.568 840.737 305.568ZM357.324 344.308C356.016 344.308 354.878 343.98 353.911 343.326C352.944 342.672 352.197 341.749 351.67 340.558C351.143 339.356 350.879 337.936 350.879 336.295V336.28C350.879 334.64 351.143 333.224 351.67 332.032C352.207 330.841 352.954 329.923 353.911 329.278C354.878 328.624 356.006 328.297 357.295 328.297C358.018 328.297 358.691 328.414 359.316 328.648C359.941 328.883 360.493 329.22 360.972 329.659C361.46 330.089 361.855 330.606 362.158 331.212H362.217V322.862H365.41V344H362.217V341.393H362.158C361.855 341.998 361.465 342.516 360.986 342.945C360.518 343.375 359.976 343.712 359.36 343.956C358.745 344.19 358.066 344.308 357.324 344.308ZM358.159 341.568C358.96 341.568 359.663 341.354 360.269 340.924C360.884 340.484 361.362 339.869 361.704 339.078C362.056 338.287 362.231 337.359 362.231 336.295V336.28C362.231 335.216 362.056 334.293 361.704 333.512C361.353 332.721 360.874 332.11 360.269 331.681C359.663 331.241 358.96 331.021 358.159 331.021C357.329 331.021 356.611 331.236 356.006 331.666C355.4 332.086 354.932 332.691 354.6 333.482C354.277 334.264 354.116 335.196 354.116 336.28V336.295C354.116 337.379 354.277 338.321 354.6 339.122C354.932 339.913 355.4 340.519 356.006 340.938C356.611 341.358 357.329 341.568 358.159 341.568ZM375.225 344.308C373.721 344.308 372.422 343.985 371.328 343.341C370.244 342.687 369.409 341.764 368.823 340.572C368.247 339.371 367.959 337.96 367.959 336.339V336.324C367.959 334.723 368.252 333.321 368.838 332.12C369.424 330.909 370.249 329.972 371.313 329.308C372.378 328.634 373.628 328.297 375.063 328.297C376.509 328.297 377.749 328.619 378.784 329.264C379.829 329.898 380.635 330.802 381.201 331.974C381.768 333.136 382.051 334.488 382.051 336.031V337.101H369.526V334.859H380.513L378.945 336.954V335.724C378.945 334.64 378.779 333.741 378.447 333.028C378.125 332.306 377.671 331.769 377.085 331.417C376.509 331.065 375.84 330.89 375.078 330.89C374.326 330.89 373.652 331.075 373.057 331.446C372.461 331.817 371.992 332.364 371.65 333.087C371.309 333.8 371.138 334.679 371.138 335.724V336.954C371.138 337.95 371.304 338.805 371.636 339.518C371.978 340.221 372.461 340.763 373.086 341.144C373.711 341.515 374.448 341.7 375.298 341.7C375.923 341.7 376.475 341.607 376.953 341.422C377.432 341.227 377.827 340.973 378.14 340.66C378.462 340.338 378.687 339.981 378.813 339.591L378.857 339.474H381.875L381.846 339.635C381.719 340.24 381.479 340.821 381.128 341.378C380.776 341.935 380.317 342.438 379.751 342.887C379.194 343.326 378.535 343.673 377.773 343.927C377.012 344.181 376.162 344.308 375.225 344.308ZM388.145 344L382.593 328.59H385.962L389.829 340.895H389.902L393.755 328.59H397.08L391.558 344H388.145ZM404.902 344.308C403.398 344.308 402.1 343.985 401.006 343.341C399.922 342.687 399.087 341.764 398.501 340.572C397.925 339.371 397.637 337.96 397.637 336.339V336.324C397.637 334.723 397.93 333.321 398.516 332.12C399.102 330.909 399.927 329.972 400.991 329.308C402.056 328.634 403.306 328.297 404.741 328.297C406.187 328.297 407.427 328.619 408.462 329.264C409.507 329.898 410.312 330.802 410.879 331.974C411.445 333.136 411.729 334.488 411.729 336.031V337.101H399.204V334.859H410.19L408.623 336.954V335.724C408.623 334.64 408.457 333.741 408.125 333.028C407.803 332.306 407.349 331.769 406.763 331.417C406.187 331.065 405.518 330.89 404.756 330.89C404.004 330.89 403.33 331.075 402.734 331.446C402.139 331.817 401.67 332.364 401.328 333.087C400.986 333.8 400.815 334.679 400.815 335.724V336.954C400.815 337.95 400.981 338.805 401.313 339.518C401.655 340.221 402.139 340.763 402.764 341.144C403.389 341.515 404.126 341.7 404.976 341.7C405.601 341.7 406.152 341.607 406.631 341.422C407.109 341.227 407.505 340.973 407.817 340.66C408.14 340.338 408.364 339.981 408.491 339.591L408.535 339.474H411.553L411.523 339.635C411.396 340.24 411.157 340.821 410.806 341.378C410.454 341.935 409.995 342.438 409.429 342.887C408.872 343.326 408.213 343.673 407.451 343.927C406.689 344.181 405.84 344.308 404.902 344.308ZM414.292 344V322.862H417.471V344H414.292ZM427.373 344.308C425.898 344.308 424.609 343.985 423.506 343.341C422.412 342.687 421.562 341.764 420.957 340.572C420.352 339.371 420.049 337.945 420.049 336.295V336.266C420.049 334.625 420.352 333.209 420.957 332.018C421.572 330.826 422.427 329.908 423.521 329.264C424.624 328.619 425.903 328.297 427.358 328.297C428.823 328.297 430.103 328.619 431.196 329.264C432.3 329.898 433.154 330.812 433.76 332.003C434.375 333.194 434.683 334.615 434.683 336.266V336.295C434.683 337.955 434.375 339.381 433.76 340.572C433.154 341.764 432.305 342.687 431.211 343.341C430.117 343.985 428.838 344.308 427.373 344.308ZM427.388 341.642C428.208 341.642 428.921 341.432 429.526 341.012C430.132 340.592 430.601 339.986 430.933 339.195C431.265 338.395 431.431 337.428 431.431 336.295V336.266C431.431 335.143 431.265 334.186 430.933 333.395C430.601 332.594 430.127 331.988 429.512 331.578C428.896 331.158 428.179 330.948 427.358 330.948C426.548 330.948 425.835 331.158 425.22 331.578C424.614 331.998 424.141 332.604 423.799 333.395C423.457 334.186 423.286 335.143 423.286 336.266V336.295C423.286 337.428 423.452 338.395 423.784 339.195C424.126 339.986 424.604 340.592 425.22 341.012C425.835 341.432 426.558 341.642 427.388 341.642ZM437.129 349.127V328.59H440.322V331.227H440.396C440.698 330.621 441.084 330.099 441.553 329.659C442.031 329.22 442.578 328.883 443.193 328.648C443.809 328.414 444.482 328.297 445.215 328.297C446.523 328.297 447.661 328.624 448.628 329.278C449.595 329.923 450.342 330.846 450.869 332.047C451.396 333.238 451.66 334.654 451.66 336.295V336.31C451.66 337.95 451.392 339.366 450.854 340.558C450.327 341.749 449.585 342.672 448.628 343.326C447.671 343.98 446.548 344.308 445.259 344.308C444.536 344.308 443.857 344.19 443.223 343.956C442.598 343.722 442.046 343.39 441.567 342.96C441.089 342.521 440.693 342.003 440.381 341.407H440.322V349.127H437.129ZM444.38 341.568C445.21 341.568 445.928 341.358 446.533 340.938C447.139 340.509 447.603 339.898 447.925 339.107C448.247 338.316 448.408 337.384 448.408 336.31V336.295C448.408 335.201 448.247 334.259 447.925 333.468C447.603 332.677 447.139 332.071 446.533 331.651C445.928 331.231 445.21 331.021 444.38 331.021C443.579 331.021 442.871 331.241 442.256 331.681C441.641 332.11 441.157 332.721 440.806 333.512C440.464 334.293 440.293 335.221 440.293 336.295V336.31C440.293 337.374 440.469 338.302 440.82 339.093C441.172 339.874 441.65 340.484 442.256 340.924C442.871 341.354 443.579 341.568 444.38 341.568ZM460.684 344.308C459.18 344.308 457.881 343.985 456.787 343.341C455.703 342.687 454.868 341.764 454.282 340.572C453.706 339.371 453.418 337.96 453.418 336.339V336.324C453.418 334.723 453.711 333.321 454.297 332.12C454.883 330.909 455.708 329.972 456.772 329.308C457.837 328.634 459.087 328.297 460.522 328.297C461.968 328.297 463.208 328.619 464.243 329.264C465.288 329.898 466.094 330.802 466.66 331.974C467.227 333.136 467.51 334.488 467.51 336.031V337.101H454.985V334.859H465.972L464.404 336.954V335.724C464.404 334.64 464.238 333.741 463.906 333.028C463.584 332.306 463.13 331.769 462.544 331.417C461.968 331.065 461.299 330.89 460.537 330.89C459.785 330.89 459.111 331.075 458.516 331.446C457.92 331.817 457.451 332.364 457.109 333.087C456.768 333.8 456.597 334.679 456.597 335.724V336.954C456.597 337.95 456.763 338.805 457.095 339.518C457.437 340.221 457.92 340.763 458.545 341.144C459.17 341.515 459.907 341.7 460.757 341.7C461.382 341.7 461.934 341.607 462.412 341.422C462.891 341.227 463.286 340.973 463.599 340.66C463.921 340.338 464.146 339.981 464.272 339.591L464.316 339.474H467.334L467.305 339.635C467.178 340.24 466.938 340.821 466.587 341.378C466.235 341.935 465.776 342.438 465.21 342.887C464.653 343.326 463.994 343.673 463.232 343.927C462.471 344.181 461.621 344.308 460.684 344.308ZM469.941 344V328.59H473.135V331.227H473.193C473.438 330.318 473.872 329.605 474.497 329.088C475.122 328.561 475.874 328.297 476.753 328.297C476.987 328.297 477.197 328.312 477.383 328.341C477.578 328.36 477.734 328.385 477.852 328.414V331.358C477.725 331.31 477.534 331.271 477.28 331.241C477.026 331.202 476.743 331.183 476.431 331.183C475.757 331.183 475.171 331.329 474.673 331.622C474.175 331.905 473.794 332.32 473.53 332.867C473.267 333.404 473.135 334.054 473.135 334.815V344H469.941ZM486.011 344V328.59H489.204V344H486.011ZM487.607 326.217C487.1 326.217 486.665 326.041 486.304 325.689C485.942 325.328 485.762 324.898 485.762 324.4C485.762 323.883 485.942 323.448 486.304 323.097C486.665 322.745 487.1 322.569 487.607 322.569C488.125 322.569 488.56 322.745 488.911 323.097C489.272 323.448 489.453 323.883 489.453 324.4C489.453 324.898 489.272 325.328 488.911 325.689C488.56 326.041 488.125 326.217 487.607 326.217ZM492.441 344V328.59H495.635V330.919H495.693C496.104 330.138 496.704 329.508 497.495 329.029C498.286 328.541 499.263 328.297 500.425 328.297C502.114 328.297 503.423 328.81 504.351 329.835C505.278 330.851 505.742 332.247 505.742 334.024V344H502.563V334.64C502.563 333.478 502.29 332.584 501.743 331.959C501.206 331.334 500.391 331.021 499.297 331.021C498.555 331.021 497.905 331.188 497.349 331.52C496.802 331.852 496.377 332.315 496.074 332.911C495.781 333.507 495.635 334.21 495.635 335.021V344H492.441ZM515.249 344V322.862H518.53V341.158H528.389V344H515.249ZM537.09 344.308C535.615 344.308 534.326 343.985 533.223 343.341C532.129 342.687 531.279 341.764 530.674 340.572C530.068 339.371 529.766 337.945 529.766 336.295V336.266C529.766 334.625 530.068 333.209 530.674 332.018C531.289 330.826 532.144 329.908 533.237 329.264C534.341 328.619 535.62 328.297 537.075 328.297C538.54 328.297 539.819 328.619 540.913 329.264C542.017 329.898 542.871 330.812 543.477 332.003C544.092 333.194 544.399 334.615 544.399 336.266V336.295C544.399 337.955 544.092 339.381 543.477 340.572C542.871 341.764 542.021 342.687 540.928 343.341C539.834 343.985 538.555 344.308 537.09 344.308ZM537.104 341.642C537.925 341.642 538.638 341.432 539.243 341.012C539.849 340.592 540.317 339.986 540.649 339.195C540.981 338.395 541.147 337.428 541.147 336.295V336.266C541.147 335.143 540.981 334.186 540.649 333.395C540.317 332.594 539.844 331.988 539.229 331.578C538.613 331.158 537.896 330.948 537.075 330.948C536.265 330.948 535.552 331.158 534.937 331.578C534.331 331.998 533.857 332.604 533.516 333.395C533.174 334.186 533.003 335.143 533.003 336.266V336.295C533.003 337.428 533.169 338.395 533.501 339.195C533.843 339.986 534.321 340.592 534.937 341.012C535.552 341.432 536.274 341.642 537.104 341.642ZM546.846 344V328.59H550.039V330.919H550.098C550.508 330.138 551.108 329.508 551.899 329.029C552.69 328.541 553.667 328.297 554.829 328.297C556.519 328.297 557.827 328.81 558.755 329.835C559.683 330.851 560.146 332.247 560.146 334.024V344H556.968V334.64C556.968 333.478 556.694 332.584 556.147 331.959C555.61 331.334 554.795 331.021 553.701 331.021C552.959 331.021 552.31 331.188 551.753 331.52C551.206 331.852 550.781 332.315 550.479 332.911C550.186 333.507 550.039 334.21 550.039 335.021V344H546.846ZM568.965 344.308C567.656 344.308 566.519 343.98 565.552 343.326C564.585 342.672 563.838 341.749 563.311 340.558C562.783 339.356 562.52 337.936 562.52 336.295V336.28C562.52 334.64 562.783 333.224 563.311 332.032C563.848 330.841 564.595 329.923 565.552 329.278C566.519 328.624 567.646 328.297 568.936 328.297C569.658 328.297 570.332 328.414 570.957 328.648C571.582 328.883 572.134 329.22 572.612 329.659C573.101 330.089 573.496 330.606 573.799 331.212H573.857V322.862H577.051V344H573.857V341.393H573.799C573.496 341.998 573.105 342.516 572.627 342.945C572.158 343.375 571.616 343.712 571.001 343.956C570.386 344.19 569.707 344.308 568.965 344.308ZM569.8 341.568C570.601 341.568 571.304 341.354 571.909 340.924C572.524 340.484 573.003 339.869 573.345 339.078C573.696 338.287 573.872 337.359 573.872 336.295V336.28C573.872 335.216 573.696 334.293 573.345 333.512C572.993 332.721 572.515 332.11 571.909 331.681C571.304 331.241 570.601 331.021 569.8 331.021C568.97 331.021 568.252 331.236 567.646 331.666C567.041 332.086 566.572 332.691 566.24 333.482C565.918 334.264 565.757 335.196 565.757 336.28V336.295C565.757 337.379 565.918 338.321 566.24 339.122C566.572 339.913 567.041 340.519 567.646 340.938C568.252 341.358 568.97 341.568 569.8 341.568ZM586.924 344.308C585.449 344.308 584.16 343.985 583.057 343.341C581.963 342.687 581.113 341.764 580.508 340.572C579.902 339.371 579.6 337.945 579.6 336.295V336.266C579.6 334.625 579.902 333.209 580.508 332.018C581.123 330.826 581.978 329.908 583.071 329.264C584.175 328.619 585.454 328.297 586.909 328.297C588.374 328.297 589.653 328.619 590.747 329.264C591.851 329.898 592.705 330.812 593.311 332.003C593.926 333.194 594.233 334.615 594.233 336.266V336.295C594.233 337.955 593.926 339.381 593.311 340.572C592.705 341.764 591.855 342.687 590.762 343.341C589.668 343.985 588.389 344.308 586.924 344.308ZM586.938 341.642C587.759 341.642 588.472 341.432 589.077 341.012C589.683 340.592 590.151 339.986 590.483 339.195C590.815 338.395 590.981 337.428 590.981 336.295V336.266C590.981 335.143 590.815 334.186 590.483 333.395C590.151 332.594 589.678 331.988 589.062 331.578C588.447 331.158 587.729 330.948 586.909 330.948C586.099 330.948 585.386 331.158 584.771 331.578C584.165 331.998 583.691 332.604 583.35 333.395C583.008 334.186 582.837 335.143 582.837 336.266V336.295C582.837 337.428 583.003 338.395 583.335 339.195C583.677 339.986 584.155 340.592 584.771 341.012C585.386 341.432 586.108 341.642 586.938 341.642ZM596.68 344V328.59H599.873V330.919H599.932C600.342 330.138 600.942 329.508 601.733 329.029C602.524 328.541 603.501 328.297 604.663 328.297C606.353 328.297 607.661 328.81 608.589 329.835C609.517 330.851 609.98 332.247 609.98 334.024V344H606.802V334.64C606.802 333.478 606.528 332.584 605.981 331.959C605.444 331.334 604.629 331.021 603.535 331.021C602.793 331.021 602.144 331.188 601.587 331.52C601.04 331.852 600.615 332.315 600.312 332.911C600.02 333.507 599.873 334.21 599.873 335.021V344H596.68ZM614.844 344.22C614.297 344.22 613.838 344.034 613.467 343.663C613.096 343.292 612.91 342.833 612.91 342.286C612.91 341.749 613.096 341.295 613.467 340.924C613.838 340.553 614.297 340.367 614.844 340.367C615.381 340.367 615.835 340.553 616.206 340.924C616.577 341.295 616.763 341.749 616.763 342.286C616.763 342.833 616.577 343.292 616.206 343.663C615.835 344.034 615.381 344.22 614.844 344.22Z"/></svg>